<?xml version="1.0" encoding="UTF-8"?>
<svg width="151px" height="23px" viewBox="0 0 151 23" version="1.1" xmlns="http://www.w3.org/2000/svg" xmlns:xlink="http://www.w3.org/1999/xlink">
    <title>F4BAAA6D-E897-466F-A5B0-23CF2F3B399E</title>
    <g id="Web-Desktop" stroke="none" stroke-width="1" fill="none" fill-rule="evenodd">
        <g id="Header-&amp;-Footer-New-Example---1A" transform="translate(-525.000000, -1641.000000)">
            <g id="Group-10" transform="translate(0.000000, 1529.000000)">
                <g id="Games" transform="translate(100.000000, 64.000000)">
                    <g id="Group-6" transform="translate(4.059990, 48.023391)">
                        <g id="Logo/Keno/Paired/HeadsOrTails" transform="translate(421.003206, 0.000000)">
                            <g id="Logo/Other/HeadsOrTails" transform="translate(-0.063196, -0.023391)">
                                <path d="M0,0.908734247 C0.751764837,0.791154791 1.49110381,0.729174923 2.22334229,0.729174923 C2.95380564,0.729174923 3.70202023,0.791154791 4.47597411,0.908734247 L4.47597411,9.42367441 L11.8187728,9.42367441 L11.8187728,0.908734247 C12.567875,0.791154791 13.3116517,0.729174923 14.0438902,0.729174923 C14.7770163,0.729174923 15.527006,0.791154791 16.2956345,0.908734247 L16.2956345,22.620829 C15.527006,22.7402314 14.7850043,22.8012998 14.0740673,22.8012998 C13.3214149,22.8012998 12.567875,22.7402314 11.8187728,22.620829 L11.8187728,13.230879 L4.47597411,13.230879 L4.47597411,22.620829 C3.70202023,22.7402314 2.96268126,22.8012998 2.25351939,22.8012998 C1.50175455,22.8012998 0.751764837,22.7402314 0,22.620829 L0,0.908734247" id="Fill-1" fill="#EB212E"></path>
                                <path d="M23.3943537,16.1293493 C23.4777845,17.3361338 23.9011515,18.2111437 24.6751054,18.754379 C25.4437339,19.2994373 26.4626548,19.5701435 27.7212174,19.5701435 C28.4099654,19.5701435 29.1173521,19.5036062 29.8398274,19.3750892 C30.5605276,19.2411033 31.2439502,19.0578981 31.8963081,18.8145359 C32.1190861,19.2164936 32.311687,19.7004835 32.4741108,20.2637711 C32.6383098,20.8288817 32.7279535,21.4322739 32.7465923,22.0757708 C31.1649572,22.6800745 29.3765202,22.9826821 27.3866066,22.9826821 C25.9256799,22.9826821 24.6680049,22.7785131 23.6242322,22.3792898 C22.5786844,21.9745978 21.7257375,21.4186019 21.064504,20.7012761 C20.404158,19.9866846 19.9177742,19.1371958 19.6035773,18.1500753 C19.2884928,17.1629547 19.1287317,16.0892447 19.1287317,14.9198304 C19.1287317,13.7713799 19.2911555,12.6967583 19.6177783,11.6895855 C19.9426259,10.6833241 20.4236844,9.80831418 21.064504,9.06364429 C21.7035485,8.31806293 22.4961412,7.73198859 23.4396193,7.29630657 C24.3848727,6.86427043 25.4863368,6.64734089 26.745787,6.64734089 C27.843701,6.64734089 28.8200189,6.83692637 29.6720782,7.21883173 C30.5259127,7.60529444 31.248388,8.12574305 31.8501549,8.79202663 C32.4465964,9.45648728 32.9019156,10.2449077 33.2063493,11.1609337 C33.5098954,12.0778711 33.6616685,13.0604343 33.6616685,14.1031545 C33.6616685,14.4877942 33.6465799,14.8651423 33.6146277,15.2397559 C33.5862257,15.6061663 33.5507233,15.9042165 33.5098954,16.1293493 L23.3943537,16.1293493 L23.3943537,16.1293493 Z M29.5815469,13.1397321 C29.5380564,12.1726639 29.2717879,11.3915352 28.7720906,10.7963462 C28.2706182,10.206626 27.5818702,9.90675279 26.6863204,9.90675279 C25.6673994,9.90675279 24.9005461,10.1902195 24.3724468,10.7535072 C23.8425724,11.3204407 23.5266004,12.1115955 23.4254184,13.1397321 L29.5815469,13.1397321 L29.5815469,13.1397321 Z" id="Fill-2" fill="#EB212E"></path>
                                <path d="M44.3239483,12.3531347 C44.3239483,11.8746136 44.2449553,11.4772133 44.0816439,11.1764286 C43.9183326,10.875644 43.6955545,10.6359277 43.4106472,10.4663945 C43.127515,10.2950384 42.7742654,10.1811049 42.3615492,10.1227709 C41.94262,10.060791 41.4819754,10.0298011 40.9716274,10.0298011 C39.8790388,10.0298011 38.7074573,10.2394389 37.4693086,10.6650947 C37.1861764,10.1410002 36.9704989,9.64698423 36.8320392,9.18395815 C36.6891418,8.71819767 36.6163617,8.1649362 36.6163617,7.52143933 C37.5092489,7.21883173 38.402136,7.00099073 39.2976859,6.86244749 C40.1914606,6.71752398 41.0222184,6.64734089 41.7952848,6.64734089 C43.9076818,6.64734089 45.5567716,7.15047159 46.7461044,8.15582151 C47.9345497,9.16572878 48.5309912,10.774471 48.5309912,12.9875168 L48.5309912,22.0466038 C47.8191666,22.2680907 46.955569,22.4804629 45.9393108,22.6800745 C44.9239401,22.8805976 43.7772102,22.9826821 42.4982337,22.9826821 C41.460674,22.9826821 40.5136455,22.8897123 39.6473852,22.7110644 C38.7846752,22.5278592 38.0435611,22.2270746 37.4249305,21.8032417 C36.8045248,21.3812317 36.3270166,20.8379964 35.9924058,20.1744472 C35.6569074,19.5099865 35.4900458,18.6969565 35.4900458,17.7271538 C35.4900458,16.7600856 35.6977352,15.9507014 36.1140017,15.2980899 C36.5320433,14.6445669 37.0707933,14.1222953 37.7293642,13.7294523 C38.387935,13.3356979 39.1254989,13.0513196 39.9385055,12.8836094 C40.7506245,12.7113418 41.5609684,12.6265753 42.3757502,12.6265753 C42.9642036,12.6265753 43.6112362,12.6566537 44.3239483,12.7177221 L44.3239483,12.3531347 L44.3239483,12.3531347 Z M44.3239483,15.4639772 C44.0816439,15.4211381 43.8153754,15.3892367 43.5322432,15.3573353 C43.2464483,15.3263454 42.9943807,15.3108504 42.7716027,15.3108504 C41.7775335,15.3108504 40.9876035,15.4913212 40.4106884,15.8431481 C39.8302229,16.1931521 39.5417654,16.7600856 39.5417654,17.548506 C39.5417654,18.0698661 39.651823,18.4745581 39.8790388,18.754379 C40.1000417,19.0341999 40.3698605,19.2411033 40.6831698,19.3750892 C40.9973667,19.5036062 41.3337526,19.5856384 41.6878898,19.6157169 C42.0438021,19.6457954 42.3553362,19.6612903 42.6180545,19.6612903 C42.9233758,19.6612903 43.2278095,19.6357692 43.5322432,19.5856384 C43.8366769,19.5345962 44.1002827,19.4871998 44.3239483,19.4489181 L44.3239483,15.4639772 L44.3239483,15.4639772 Z" id="Fill-3" fill="#EB212E"></path>
                                <path d="M61.2027109,0.549615598 C61.5674988,0.489458667 61.9278489,0.447531109 62.2828736,0.428390267 C62.6370107,0.406515019 62.9875976,0.401046207 63.3355219,0.401046207 C63.6790083,0.401046207 64.034033,0.406515019 64.400596,0.428390267 C64.7653839,0.447531109 65.1310594,0.489458667 65.4967348,0.549615598 L65.4967348,22.1076722 C64.5408308,22.389316 63.574276,22.6035111 62.5881948,22.7548149 C61.6021137,22.9070302 60.4092306,22.9826821 59.0077706,22.9826821 C57.929383,22.9826821 56.8998113,22.8359356 55.9163929,22.5433542 C54.9320868,22.2507728 54.0631638,21.7904811 53.311399,21.1560989 C52.5605217,20.5226282 51.9640802,19.7004835 51.53095,18.6969565 C51.0924945,17.6870492 50.8732668,16.4620353 50.8732668,15.0109773 C50.8732668,13.8634382 51.0587672,12.7833479 51.4359809,11.7652374 C51.8140823,10.7498613 52.3546074,9.86847111 53.0531185,9.12288975 C53.7525172,8.38095427 54.5992512,7.78941111 55.5977582,7.35828644 C56.5927149,6.92351589 57.6977294,6.70658635 58.9181268,6.70658635 C59.2846899,6.70658635 59.6601285,6.72390426 60.0604189,6.75124832 C60.4553839,6.78223825 60.8361479,6.84968693 61.2027109,6.94721408 L61.2027109,0.549615598 L61.2027109,0.549615598 Z M61.2027109,10.2394389 C60.7926573,10.1410002 60.4686973,10.0735516 60.2104168,10.0443846 C59.9565741,10.0133946 59.6352768,9.99789966 59.2500749,9.99789966 C58.5826285,9.99789966 57.9968377,10.1355314 57.4998031,10.4062376 C57.0045436,10.6796782 56.5927149,11.0424427 56.2652046,11.4917968 C55.9394695,11.9447967 55.703378,12.4807403 55.5498298,13.0932472 C55.3989443,13.7094 55.322614,14.3465166 55.322614,15.0109773 C55.322614,15.8367679 55.4220209,16.5358643 55.6279353,17.1073552 C55.8294118,17.678846 56.1107689,18.1427835 56.4640185,18.4809384 C56.8181556,18.826385 57.2397475,19.0724816 57.7279065,19.2201395 C58.2160655,19.3750892 58.7459398,19.4489181 59.3122043,19.4489181 C59.6592409,19.4489181 59.9716627,19.4334232 60.25657,19.4051676 C60.5397022,19.3750892 60.8530115,19.3094634 61.2027109,19.2092019 L61.2027109,10.2394389 L61.2027109,10.2394389 Z" id="Fill-4" fill="#EB212E"></path>
                                <path d="M72.1081826,15.8258302 C70.9685533,15.5031703 70.0792164,15.0237378 69.441947,14.3911786 C68.7993523,13.7586193 68.4833803,12.8079575 68.4833803,11.5373702 C68.4833803,10.0097488 69.0354437,8.81116747 70.1448959,7.94618372 C71.2507979,7.0802885 72.7578778,6.64734089 74.6670233,6.64734089 C75.4613911,6.64734089 76.2397828,6.71752398 77.0163993,6.86244749 C77.7832527,7.00099073 78.5660822,7.21062852 79.3586749,7.4931838 C79.317847,8.01636681 79.2148899,8.56051359 79.0533536,9.12288975 C78.8891547,9.68526591 78.6992165,10.1811049 78.4755509,10.6012919 C77.9865044,10.4035032 77.450417,10.2239439 76.8593009,10.0735516 C76.2699599,9.92224776 75.6522168,9.8484188 75.0007465,9.8484188 C74.311111,9.8484188 73.7732485,9.95414916 73.3880467,10.1665214 C73.0019573,10.3770706 72.8093564,10.7134026 72.8093564,11.1764286 C72.8093564,11.6184909 72.9469285,11.9293017 73.2211851,12.1115955 C73.4936666,12.2938892 73.8850813,12.4615994 74.3936542,12.6256638 L76.1288375,13.1397321 C76.6995398,13.3001506 77.2116629,13.4970278 77.6687572,13.7294523 C78.1258516,13.958231 78.5146036,14.2453436 78.8403388,14.5889673 C79.1651864,14.9316795 79.4190291,15.3536895 79.6036419,15.8549972 C79.7855921,16.3599509 79.8761234,16.9733693 79.8761234,17.6979868 C79.8761234,18.4408338 79.7208001,19.1371958 79.4048281,19.7797812 C79.0879685,20.4232781 78.6326493,20.9847428 78.0335451,21.4587065 C77.4326658,21.9290243 76.7084154,22.3027265 75.8554685,22.5743441 C75.0007465,22.8459618 74.0368544,22.9826821 72.9620171,22.9826821 C72.4747456,22.9826821 72.0238642,22.9671871 71.6209112,22.9361972 C71.2135203,22.9061187 70.8229931,22.854165 70.4484421,22.7839819 C70.0730034,22.7147103 69.6993399,22.6290323 69.3372147,22.5305936 C68.9724268,22.4285092 68.5739116,22.2981691 68.1469943,22.1350162 C68.1878222,21.5936039 68.2845664,21.0421653 68.4354519,20.4898153 C68.5898877,19.9383768 68.787814,19.3978759 69.0292308,18.8746929 C69.6993399,19.1371958 70.3366093,19.3340731 70.9357135,19.4616787 C71.5330426,19.5956646 72.1569985,19.6612903 72.8093564,19.6612903 C73.0924886,19.6612903 73.4031353,19.6357692 73.7350834,19.5856384 C74.0723569,19.5355076 74.3821159,19.4434493 74.6670233,19.3131093 C74.9501555,19.1818578 75.1906847,19.0141476 75.3806229,18.8017754 C75.5767741,18.5894032 75.6735183,18.3123167 75.6735183,17.970516 C75.6735183,17.4856146 75.5252955,17.1392566 75.2297374,16.9277958 C74.9341794,16.7172466 74.5241258,16.531307 73.9960265,16.3708885 L72.1081826,15.8258302" id="Fill-5" fill="#EB212E"></path>
                                <path d="M85.2813747,18.6778156 C84.7381869,18.6778156 84.2633413,18.5903147 83.8603883,18.4144012 C83.4565477,18.2412222 83.1228244,17.9942142 82.8609937,17.6806689 C82.5947252,17.3671237 82.3959113,17.0007133 82.2592268,16.5814377 C82.1296428,16.1585163 82.0595254,15.7046049 82.0595254,15.2151462 C82.0595254,14.7256876 82.1296428,14.263573 82.2592268,13.8360942 C82.3959113,13.4067924 82.5947252,13.0349132 82.8609937,12.7250139 C83.1228244,12.4087342 83.4565477,12.1617262 83.8603883,11.980344 C84.2633413,11.8016961 84.7381869,11.7096378 85.2813747,11.7096378 C85.8290003,11.7096378 86.3038459,11.8016961 86.7103492,11.980344 C87.1168525,12.1617262 87.4559011,12.4087342 87.7257199,12.7250139 C87.9902133,13.0349132 88.1908023,13.4067924 88.3212739,13.8360942 C88.4517454,14.263573 88.517425,14.7256876 88.517425,15.2151462 C88.517425,15.7046049 88.4517454,16.1585163 88.3212739,16.5814377 C88.1908023,17.0007133 87.9902133,17.3671237 87.7257199,17.6806689 C87.4559011,17.9942142 87.1168525,18.2412222 86.7103492,18.4144012 C86.3038459,18.5903147 85.8290003,18.6778156 85.2813747,18.6778156 M85.2813747,17.2896489 C85.7659835,17.2896489 86.1156828,17.1073552 86.3295852,16.7537053 C86.5426,16.3982325 86.6473323,15.8823413 86.6473323,15.2151462 C86.6473323,14.5452168 86.5426,14.0293255 86.3295852,13.6756757 C86.1156828,13.31838 85.7659835,13.141555 85.2813747,13.141555 C84.8056416,13.141555 84.4612676,13.31838 84.2500279,13.6756757 C84.0379007,14.0293255 83.9305057,14.5452168 83.9305057,15.2151462 C83.9305057,15.8823413 84.0379007,16.3982325 84.2500279,16.7537053 C84.4612676,17.1073552 84.8056416,17.2896489 85.2813747,17.2896489" id="Fill-6" fill="#8EAABF"></path>
                                <path d="M89.4538027,11.8682333 C89.5816116,11.8408893 89.7058703,11.8181026 89.8230284,11.8071649 C89.9375239,11.7953158 90.0653328,11.7871126 90.2055675,11.7871126 C90.3360391,11.7871126 90.4629605,11.7980502 90.5872191,11.8135452 C90.7141404,11.8308631 90.8348488,11.8509154 90.9591075,11.877348 C90.9821841,11.9238329 91.0061483,11.9821669 91.0292249,12.0632876 C91.0514139,12.1462313 91.0727154,12.2319093 91.0869164,12.3230562 C91.1055552,12.4142031 91.1206437,12.5026155 91.1339572,12.591028 C91.146383,12.6839978 91.1561462,12.7578267 91.1650218,12.8198066 C91.3576227,12.5509234 91.5919391,12.31303 91.8653081,12.1052152 C92.1448901,11.892843 92.489264,11.7871126 92.9064181,11.7871126 C92.9951743,11.7871126 93.0936936,11.7925814 93.206414,11.8026076 C93.321797,11.8098993 93.4016776,11.8235714 93.4522686,11.8408893 C93.4673571,11.9274788 93.4824457,12.023183 93.4922089,12.1362051 C93.5001969,12.2483158 93.5046347,12.3613379 93.5046347,12.4843861 C93.5046347,12.6283982 93.4984218,12.7879052 93.4842208,12.9610843 C93.4717949,13.1315289 93.4487183,13.2937703 93.4114407,13.446897 C93.321797,13.4341365 93.2126269,13.4231989 93.0981314,13.4231989 L92.8797912,13.4231989 C92.7333435,13.4231989 92.5691446,13.4386938 92.3898571,13.4696838 C92.2061318,13.4997622 92.0321697,13.5763256 91.8653081,13.7057541 C91.705547,13.8360942 91.5661998,14.0293255 91.4570297,14.2854482 C91.3522974,14.5452168 91.2954934,14.9043354 91.2954934,15.3691844 L91.2954934,18.5374495 C91.1410577,18.5629706 90.9821841,18.5802885 90.830411,18.5894032 C90.6715375,18.5966949 90.5224271,18.6003408 90.376867,18.6003408 C90.2277566,18.6003408 90.0786462,18.5966949 89.9259856,18.5894032 C89.7768752,18.5802885 89.6144514,18.5629706 89.4538027,18.5374495 L89.4538027,11.8682333" id="Fill-7" fill="#8EAABF"></path>
                                <path d="M96.2507509,4.53182214 L90.7549683,4.53182214 C90.6333723,3.92569549 90.5721306,3.28675596 90.5721306,2.6168265 C90.5721306,1.98700166 90.6333723,1.36720298 90.7549683,0.760164857 L106.258898,0.760164857 C106.380494,1.36720298 106.441735,1.98700166 106.441735,2.6168265 C106.441735,3.28675596 106.380494,3.92569549 106.258898,4.53182214 L100.762227,4.53182214 L100.762227,22.6372355 C100.393889,22.6773401 100.024664,22.7119759 99.6607633,22.7429658 C99.29065,22.7730443 98.9311875,22.7885393 98.5823757,22.7885393 C98.2371142,22.7885393 97.8634507,22.7785131 97.4622727,22.7593723 C97.0637575,22.7356741 96.6572542,22.6964809 96.2507509,22.6372355 L96.2507509,4.53182214" id="Fill-8" fill="#0578BE"></path>
                                <path d="M114.515885,12.2902433 C114.515885,11.8035191 114.435117,11.4079417 114.267368,11.1053341 C114.105831,10.8009035 113.880391,10.5630102 113.592821,10.3907426 C113.308801,10.2193865 112.956439,10.1008956 112.535735,10.0398272 C112.11503,9.97875882 111.652611,9.94959182 111.141375,9.94959182 C110.033698,9.94959182 108.855903,10.1628755 107.610654,10.5885313 C107.322197,10.060791 107.108294,9.56495205 106.965397,9.09554569 C106.821612,8.63251962 106.750607,8.07196639 106.750607,7.42300071 C107.650595,7.12130459 108.54792,6.89617183 109.449682,6.75398272 C110.34967,6.61452802 111.189303,6.54252199 111.968583,6.54252199 C114.096068,6.54252199 115.758472,7.04656416 116.958455,8.06285171 C118.154001,9.07822779 118.75133,10.6997305 118.75133,12.9319173 L118.75133,22.0557185 C118.03418,22.2835856 117.165257,22.492312 116.142786,22.6964809 C115.117652,22.8997384 113.962934,23 112.674194,23 C111.629534,23 110.672742,22.9097646 109.803819,22.7292938 C108.934896,22.5433542 108.185794,22.2398351 107.560951,21.8150908 C106.939658,21.387612 106.458599,20.8407308 106.122213,20.1717128 C105.782277,19.5036062 105.610978,18.6814615 105.610978,17.7061901 C105.610978,16.7354759 105.823992,15.9178886 106.242034,15.2579853 C106.663626,14.6008164 107.204151,14.0739875 107.871597,13.6756757 C108.536381,13.2819212 109.27572,12.997543 110.09494,12.8234525 C110.913272,12.6548308 111.733379,12.5655069 112.552598,12.5655069 C113.142827,12.5655069 113.80051,12.5983197 114.515885,12.6566537 L114.515885,12.2902433 L114.515885,12.2902433 Z M114.515885,15.4256955 C114.267368,15.3846794 114.006425,15.3473092 113.718855,15.3199651 C113.431284,15.2880637 113.177442,15.2716573 112.946676,15.2716573 C111.946394,15.2716573 111.155576,15.4521281 110.572448,15.8066894 C109.988432,16.1603392 109.697312,16.7354759 109.697312,17.5238963 C109.697312,18.0525481 109.806482,18.4563288 110.033698,18.7397955 C110.260026,19.0232623 110.530733,19.2319886 110.849367,19.365063 C111.164452,19.497226 111.5035,19.5774352 111.8603,19.6066022 C112.22065,19.6385036 112.527747,19.6576444 112.796678,19.6576444 C113.103774,19.6576444 113.412646,19.6303004 113.718855,19.5774352 C114.025063,19.5273044 114.292219,19.481731 114.515885,19.4416264 L114.515885,15.4256955 L114.515885,15.4256955 Z" id="Fill-9" fill="#0578BE"></path>
                                <path d="M122.865179,10.1920425 L120.807811,10.1920425 C120.747456,9.92862804 120.701303,9.64880716 120.669351,9.35440279 C120.638286,9.05999841 120.623198,8.78200048 120.623198,8.51585163 C120.623198,7.97079337 120.686215,7.43484981 120.807811,6.90528652 L127.132576,6.90528652 L127.132576,22.6372355 C126.395012,22.7593723 125.679637,22.8186177 124.982901,22.8186177 C124.310129,22.8186177 123.601855,22.7593723 122.865179,22.6372355 L122.865179,10.1920425 L122.865179,10.1920425 Z M122.220809,4.26111595 C122.098325,3.57113418 122.036196,2.88935563 122.036196,2.22307205 C122.036196,1.57137196 122.098325,0.889593406 122.220809,0.185028137 C122.569621,0.123048268 122.940622,0.0783863042 123.341799,0.0455734327 C123.74209,0.0154949671 124.101552,0 124.428175,0 C124.77965,0 125.155088,0.0154949671 125.56958,0.0455734327 C125.975195,0.0783863042 126.355959,0.123048268 126.702108,0.185028137 C126.765125,0.529563288 126.805953,0.868629627 126.825479,1.20222715 C126.844118,1.53582468 126.853881,1.87580249 126.853881,2.22307205 C126.853881,2.54573195 126.844118,2.88206388 126.825479,3.2275105 C126.805953,3.57113418 126.765125,3.9165808 126.702108,4.26111595 C126.355959,4.31853848 125.982296,4.36137751 125.58023,4.38234129 C125.182603,4.40057066 124.808052,4.40968535 124.463678,4.40968535 C124.133505,4.40968535 123.764279,4.40057066 123.355113,4.38234129 C122.945947,4.36137751 122.569621,4.31853848 122.220809,4.26111595 L122.220809,4.26111595 Z" id="Fill-10" fill="#0578BE"></path>
                                <path d="M130.690811,0.395577396 C131.43015,0.274352065 132.153513,0.213283665 132.87155,0.213283665 C133.567399,0.213283665 134.285436,0.274352065 135.021225,0.395577396 L135.021225,16.3708885 C135.021225,17.0007133 135.058503,17.503844 135.12862,17.8921297 C135.200513,18.2749465 135.313233,18.5739082 135.468556,18.7862804 C135.618554,18.9986526 135.819143,19.1463105 136.063223,19.2274312 C136.310852,19.3103749 136.617949,19.3486566 136.984512,19.3486566 C137.148711,19.3486566 137.329773,19.3404534 137.523262,19.3176666 C137.71675,19.3003487 137.907576,19.2666244 138.090414,19.2274312 C138.313192,20.0605136 138.429462,20.8698978 138.429462,21.663787 L138.429462,22.1031148 C138.429462,22.2343663 138.410824,22.3847587 138.367333,22.5433542 C138.039823,22.6472616 137.645745,22.7174447 137.184213,22.7593723 C136.724456,22.797654 136.297539,22.8195292 135.912337,22.8195292 C134.33514,22.8195292 133.073027,22.389316 132.119786,21.5252437 C131.169207,20.6639058 130.690811,19.2602441 130.690811,17.3115241 L130.690811,0.395577396" id="Fill-11" fill="#0578BE"></path>
                                <path d="M143.231172,15.8258302 C142.091542,15.5031703 141.202205,15.0237378 140.564936,14.3911786 C139.922341,13.7586193 139.606369,12.8079575 139.606369,11.5373702 C139.606369,10.0097488 140.158433,8.81116747 141.268773,7.94618372 C142.374675,7.0802885 143.881754,6.64734089 145.7909,6.64734089 C146.585268,6.64734089 147.362772,6.71752398 148.139388,6.86244749 C148.906242,7.00099073 149.689071,7.21062852 150.481664,7.4931838 C150.440836,8.01636681 150.338766,8.56051359 150.176343,9.12288975 C150.012144,9.68526591 149.822206,10.1811049 149.599427,10.6012919 C149.110381,10.4035032 148.573406,10.2239439 147.98229,10.0735516 C147.393836,9.92224776 146.776093,9.8484188 146.123736,9.8484188 C145.434988,9.8484188 144.896238,9.95414916 144.511036,10.1665214 C144.125834,10.3770706 143.933233,10.7134026 143.933233,11.1764286 C143.933233,11.6184909 144.069918,11.9293017 144.345062,12.1115955 C144.616656,12.2938892 145.00807,12.4615994 145.516643,12.6256638 L147.252714,13.1397321 C147.822529,13.3001506 148.33554,13.4970278 148.791746,13.7294523 C149.249728,13.958231 149.637593,14.2453436 149.964215,14.5889673 C150.289063,14.9316795 150.542018,15.3536895 150.726631,15.8549972 C150.908581,16.3599509 151,16.9733693 151,17.6979868 C151,18.4408338 150.844677,19.1371958 150.527817,19.7797812 C150.210958,20.4232781 149.756526,20.9847428 149.156534,21.4587065 C148.555655,21.9290243 147.831404,22.3027265 146.978458,22.5743441 C146.123736,22.8459618 145.159843,22.9826821 144.085006,22.9826821 C143.597735,22.9826821 143.146853,22.9671871 142.7439,22.9361972 C142.336509,22.9061187 141.94687,22.854165 141.572319,22.7839819 C141.19688,22.7147103 140.823217,22.6290323 140.460204,22.5305936 C140.095416,22.4285092 139.697788,22.2981691 139.269983,22.1350162 C139.310811,21.5936039 139.407555,21.0421653 139.559329,20.4898153 C139.712877,19.9383768 139.910803,19.3978759 140.153107,18.8746929 C140.823217,19.1371958 141.460486,19.3340731 142.058703,19.4616787 C142.656032,19.5956646 143.280875,19.6612903 143.933233,19.6612903 C144.215478,19.6612903 144.527012,19.6357692 144.85896,19.5856384 C145.196233,19.5355076 145.505105,19.4434493 145.7909,19.3131093 C146.073144,19.1818578 146.314561,19.0141476 146.5045,18.8017754 C146.699763,18.5894032 146.796507,18.3123167 146.796507,17.970516 C146.796507,17.4856146 146.648285,17.1392566 146.352726,16.9277958 C146.057168,16.7172466 145.647115,16.531307 145.119903,16.3708885 L143.231172,15.8258302" id="Fill-12" fill="#0578BE"></path>
                            </g>
                        </g>
                    </g>
                </g>
            </g>
        </g>
    </g>
</svg>
